<?xml version="1.0" encoding="UTF-8"?>
<svg id="Laag_2" data-name="Laag 2" xmlns="http://www.w3.org/2000/svg" viewBox="0 0 33.66 31.19">
  <defs>
    <style>
      .cls-1 {
        fill: #0071ae;
        fill-rule: evenodd;
      }

      .cls-2 {
        fill: #17abdb;
      }
    </style>
  </defs>
  <g id="Laag_1-2" data-name="Laag 1">
    <path class="cls-1" d="M27.86,5.94c2.44,2.24,4.28,4.89,5.18,7.91-1.53-1.53-4-2.07-6.08-1.59-2.3.54-3.85,2.44-5.06,4.34-.58.91-1.1,1.84-1.63,2.77-.67,1.18-1.33,2.36-2.1,3.48-1.3,1.9-2.92,3.61-5.04,4.58-2.2,1-4.66,1.15-6.94.37-3.68-1.49-6.19-5.21-6.19-9.18C0,11.78,6.35,7.9,11.73,4.62c2.6-1.59,4.98-3.04,6.3-4.62h0c.27.11.53.21.8.32,3.28,1.38,6.41,3.21,9.04,5.62Z"/>
    <path class="cls-2" d="M33.13,15.91c-.92-1.86-2.88-2.65-4.87-2.56-1.93.09-3.34,1.32-4.41,2.84-1.22,1.71-2.07,3.67-3.06,5.51-.96,1.78-1.99,3.52-3.36,5.01-1.53,1.65-3.45,2.89-5.6,3.55,1,.72,2.38.88,3.57.93,1.34.05,2.71-.07,4.03-.31,2.42-.43,5.03-1.28,6.82-3.05-2.79.04-5.04-1.85-5.24-4.68,1.8,2.18,4.51,3.02,7.23,2.24,2.38-.68,4.29-2.57,5.07-4.92.49-1.49.54-3.11-.17-4.55Z"/>
  </g>
</svg>